<svg width="1em" height="1em" viewBox="0 0 16 21" xmlns="http://www.w3.org/2000/svg"><path d="M6.952 7.3a.594.594 0 0 1 0 .84l-2.375 2.374a.596.596 0 0 1-.84-.001L2.55 9.325a.594.594 0 0 1 .84-.84l.766.77 1.955-1.957a.596.596 0 0 1 .84.002zm0 4.75a.594.594 0 0 1 0 .84l-2.375 2.374a.596.596 0 0 1-.84 0L2.55 14.077a.594.594 0 0 1 .84-.84l.766.767 1.955-1.956a.596.596 0 0 1 .84.002zm4.33-3.738a.594.594 0 0 1 0 1.188H8.905a.594.594 0 0 1 0-1.188h2.375zm0 4.75a.594.594 0 0 1 0 1.188H8.905a.594.594 0 0 1 0-1.188h2.375zm1.78-10.687a1.19 1.19 0 0 1 1.188 1.188v14.25A1.19 1.19 0 0 1 13.062 19H1.188A1.19 1.19 0 0 1 0 17.812V3.563a1.19 1.19 0 0 1 1.188-1.187h2.375v-.594c0-.327.265-.593.593-.593h1.289A1.786 1.786 0 0 1 7.125 0c.774 0 1.434.496 1.68 1.188h1.289c.328 0 .594.266.594.593v.594h2.374zm-8.312 0v1.188H9.5V2.375H8.312a.594.594 0 0 1-.593-.594.594.594 0 0 0-1.188 0 .594.594 0 0 1-.593.594H4.75zm8.313 15.438V3.563h-2.376v.593a.594.594 0 0 1-.593.594H4.156a.594.594 0 0 1-.593-.594v-.593H1.187v14.25h11.876z"/></svg>