<svg width="1em" height="1em" viewBox="0 0 21 17" xmlns="http://www.w3.org/2000/svg"><path d="M13.825 6.635l-1.68 1.002a22.7 22.7 0 0 1-1.82.932c-.175.07-.385.173-.595.276-.735.38-1.12 1.175-.945 1.97.14.62.665 1.139 1.295 1.277.14.035.28.035.42.035.665 0 1.26-.38 1.575-.967.07-.173.175-.38.28-.588.315-.587.595-1.209.945-1.796l1.015-1.658c.07-.138.035-.276-.07-.414-.105-.138-.28-.138-.42-.07zm-1.12 1.761c-.385.622-.7 1.244-.98 1.866-.07.207-.175.38-.28.587-.21.449-.7.656-1.19.552a.964.964 0 0 1-.77-.76c-.105-.483.105-.967.56-1.174.175-.103.385-.173.595-.276.63-.311 1.295-.622 1.89-.967l.455-.277-.28.45z"/><path d="M20.25 6.566a.366.366 0 0 0-.054-.132 10.421 10.421 0 0 0-2.23-3.301.374.374 0 0 0-.103-.102A10.537 10.537 0 0 0 10.5.038c-1.37 0-2.682.263-3.885.74a.377.377 0 0 0-.133.054 10.58 10.58 0 0 0-3.345 2.2.377.377 0 0 0-.104.101C1.16 5.007 0 7.576 0 10.4c0 2.348.77 4.593 2.275 6.424a.32.32 0 0 0 .28.138h15.89a.32.32 0 0 0 .28-.138C20.23 14.994 21 12.748 21 10.4a10.15 10.15 0 0 0-.75-3.834zm-1.945 9.705H2.73a9.544 9.544 0 0 1-1.177-1.927l.967-.387c.175-.069.245-.276.175-.449-.07-.172-.28-.241-.455-.172l-.948.379a9.453 9.453 0 0 1-.585-2.97H3.15c.21 0 .35-.138.35-.345 0-.208-.14-.346-.35-.346H.707a9.476 9.476 0 0 1 .642-3.104l.961.41c.035.035.105.035.14.035.14 0 .245-.07.315-.208.07-.172 0-.38-.175-.449l-.97-.414a9.734 9.734 0 0 1 1.719-2.508l.721.712a.32.32 0 0 0 .245.104.32.32 0 0 0 .245-.104.33.33 0 0 0 0-.484l-.722-.712a9.876 9.876 0 0 1 2.677-1.758l.39.95c.035.139.175.208.315.208.035 0 .07 0 .14-.035.175-.069.245-.276.175-.449l-.383-.931A9.818 9.818 0 0 1 10.15.735v2.411c0 .208.14.346.35.346.21 0 .35-.138.35-.346V.736a9.813 9.813 0 0 1 3.146.633l-.416.948c-.07.173 0 .38.175.45.035.034.105.034.14.034.14 0 .28-.104.315-.207l.42-.958a9.877 9.877 0 0 1 2.541 1.696l-.721.712a.33.33 0 0 0 0 .484.32.32 0 0 0 .245.104.38.38 0 0 0 .245-.104l.721-.712a9.727 9.727 0 0 1 1.782 2.64l-.963.386c-.175.07-.245.276-.175.45.035.137.175.206.315.206.035 0 .07-.034.14-.034l.944-.378a9.46 9.46 0 0 1 .589 2.968H17.85c-.21 0-.35.138-.35.346 0 .207.14.345.35.345h2.444a9.582 9.582 0 0 1-.633 3.109l-.971-.415c-.175-.069-.385 0-.455.173s0 .38.175.449l.984.42a9.774 9.774 0 0 1-1.089 1.79z"/></svg>