<svg width="1em" height="1em" viewBox="0 0 18 19" xmlns="http://www.w3.org/2000/svg"><path d="M1.283 17.847h.004a.58.58 0 0 1-1.16.028 8.814 8.814 0 0 1 2.598-6.15 8.845 8.845 0 0 1 3.373-2.116l.03-.221a5.076 5.076 0 0 1-2.205-4.185A5.082 5.082 0 0 1 9 .125c2.8 0 5.078 2.278 5.078 5.078 0 2.8-2.278 5.078-5.078 5.078-4.205 0-7.635 3.38-7.717 7.566zM9 9.125a3.926 3.926 0 0 0 3.922-3.922A3.926 3.926 0 0 0 9 1.281a3.926 3.926 0 0 0-3.922 3.922A3.926 3.926 0 0 0 9 9.125zm2.945 5.75h5.43a.5.5 0 1 0 0-1h-5.43a.5.5 0 1 0 0 1zm5.43-4h-5.43a.5.5 0 1 0 0 1h5.43a.5.5 0 1 0 0-1zm-5.93 6.5a.5.5 0 0 0 .5.5h5.43a.5.5 0 1 0 0-1h-5.43a.5.5 0 0 0-.5.5z"/></svg>