<svg width="1em" height="1em" viewBox="0 0 19 22" xmlns="http://www.w3.org/2000/svg"><path d="M13.65 20.309a2.44 2.44 0 0 1-3.013 1.544L1.66 18.841a2.427 2.427 0 0 1-1.406-1.22 2.398 2.398 0 0 1-.124-1.848L3.677 5.33c.174-.513.508-.946.962-1.244L8.906.554c.275-.24.735-.42 1.093-.479a2.447 2.447 0 0 1 1.175.095l3.208 1.07a2.43 2.43 0 0 1 1.615 1.841l1.239 5.38a2.383 2.383 0 0 1-.044 1.404l-.565 1.664c.368.124.762.234 1.186.327a.428.428 0 1 1-.186.837 12.66 12.66 0 0 1-1.275-.352L13.65 20.31zm-7.087-5.3a.408.408 0 0 0-.293-.407l-2.242-.75a.428.428 0 1 0-.274.813l2.23.746a.432.432 0 0 0 .148.026c.238 0 .43-.216.43-.428zm2.913.666a.441.441 0 0 0-.552.412c0 .191.097.331.277.4l.028.01 2.213.74a.428.428 0 1 0 .274-.813l-2.24-.75zm-1.743-.55a.43.43 0 0 0-.43.428.43.43 0 0 0 .43.428.43.43 0 0 0 .431-.428.43.43 0 0 0-.43-.428zm3.024-9.743a.43.43 0 0 1 .439-.42.43.43 0 0 1 .422.437c0 .005-.018.536.174 1.3a1.436 1.436 0 0 0-.14-2.672 1.454 1.454 0 0 0-1.837.902 1.44 1.44 0 0 0 1.121 1.88c-.199-.84-.18-1.422-.18-1.427zm1.3 2.136c.496 1.235 1.545 2.734 3.765 3.702l.553-1.63a1.538 1.538 0 0 0 .027-.907l-1.246-5.41a1.568 1.568 0 0 0-1.048-1.221L10.901.982a1.589 1.589 0 0 0-.763-.06c-.064.01-.547.19-.695.301L5.128 4.792c-.297.19-.52.478-.634.81L.946 16.045a1.564 1.564 0 0 0 .986 1.983l8.905 2.989a1.58 1.58 0 0 0 1.996-.98l2.712-8c-2.613-1.111-3.802-2.904-4.341-4.35A2.317 2.317 0 0 1 9.116 6.41a2.291 2.291 0 0 1 1.046-3.077 2.318 2.318 0 0 1 3.097 1.04 2.295 2.295 0 0 1-1.2 3.147zM5.33 10.026l7.688 2.572a.428.428 0 1 0 .274-.813l-7.688-2.57a.428.428 0 1 0-.274.813zm-.788 2.32l7.688 2.571a.428.428 0 1 0 .274-.812l-7.688-2.572a.428.428 0 1 0-.274.812z"/></svg>