<svg width="1em" height="1em" viewBox="0 0 19 22" xmlns="http://www.w3.org/2000/svg"><path d="M12.639 2.71C12.415 1.165 11.05 0 9.466 0c-1.02 0-1.988.485-2.59 1.298a.368.368 0 0 0 .083.52.38.38 0 0 0 .526-.082 2.473 2.473 0 0 1 1.98-.992c1.213 0 2.256.89 2.427 2.071a.376.376 0 0 0 .427.316.373.373 0 0 0 .32-.42zm5.445 4.162l-1.13-1.859a.378.378 0 0 0-.324-.18h-1.084a.375.375 0 0 0-.377.371c0 .205.169.372.377.372h.87l.68 1.115H1.835l.68-1.115h.399a.375.375 0 0 0 .377-.372.375.375 0 0 0-.377-.371h-.613a.378.378 0 0 0-.323.18L.847 6.872a.368.368 0 0 0-.004.374.378.378 0 0 0 .328.189h16.59a.378.378 0 0 0 .328-.189.367.367 0 0 0-.005-.374z"/><path d="M16.205 3.444a.376.376 0 0 0-.235-.166l-5.14-1.185a.382.382 0 0 0-.284.046.372.372 0 0 0-.169.231L9.99 4.004c-.048.2.078.4.281.446a.377.377 0 0 0 .453-.277l.302-1.272 4.406 1.016-.693 2.919a.371.371 0 0 0 .368.456.375.375 0 0 0 .366-.287l.779-3.28a.366.366 0 0 0-.047-.28zm-6.54.879l-.343-2.865a.37.37 0 0 0-.141-.248.38.38 0 0 0-.278-.078l-6.306.735a.373.373 0 0 0-.33.413l.572 4.778a.375.375 0 0 0 .42.326.373.373 0 0 0 .33-.413l-.53-4.41 5.558-.647.3 2.496a.376.376 0 0 0 .418.326.373.373 0 0 0 .33-.413z"/><path d="M12.647 6.922L11.9 3.853a.373.373 0 0 0-.17-.23.384.384 0 0 0-.285-.044L5.37 5.02a.372.372 0 0 0-.278.449L5.466 7c.048.2.252.323.454.275a.372.372 0 0 0 .279-.448l-.286-1.173 5.34-1.266.661 2.707a.376.376 0 0 0 .455.274.372.372 0 0 0 .278-.448z"/><path d="M18.138 7.044a.375.375 0 0 0-.377-.352H1.171c-.2 0-.366.155-.377.352L.04 21.542a.369.369 0 0 0 .103.276.38.38 0 0 0 .274.115h18.098a.381.381 0 0 0 .274-.115.37.37 0 0 0 .103-.276l-.754-14.498zM.813 21.19L1.53 7.435h15.874l.715 13.755H.813z"/><path d="M12.294 8.178c-.624 0-1.131.5-1.131 1.116 0 .615.507 1.115 1.13 1.115.625 0 1.132-.5 1.132-1.115s-.507-1.116-1.131-1.116zm0 1.488a.375.375 0 0 1-.377-.372c0-.205.169-.372.377-.372s.377.167.377.372-.17.372-.377.372zM6.638 8.178c-.624 0-1.131.5-1.131 1.116 0 .615.507 1.115 1.131 1.115s1.131-.5 1.131-1.115-.507-1.116-1.13-1.116zm0 1.488a.375.375 0 0 1-.377-.372c0-.205.17-.372.377-.372.208 0 .377.167.377.372s-.169.372-.377.372z"/><path d="M12.294 9.294h-.03a.375.375 0 0 0-.347.515v1.901c0 1.332-1.1 2.416-2.451 2.416s-2.45-1.084-2.45-2.416V9.666a.375.375 0 0 0-.378-.372.375.375 0 0 0-.377.372v2.044c0 1.742 1.438 3.16 3.205 3.16 1.767 0 3.205-1.418 3.205-3.16V9.666a.375.375 0 0 0-.377-.372z"/></svg>