<svg xmlns="http://www.w3.org/2000/svg" viewBox="0 0 512 512"><path d="M89.9 511.5H10c-5.5 0-10-4.5-10-10V345.7c0-5.5 4.5-10 10-10h79.9c5.5 0 10 4.5 10 10v155.8c0 5.5-4.5 10-10 10zm-69.9-20h59.9V355.7H20v135.8zM227.1 512h-79.9c-5.5 0-10-4.5-10-10V286.2c0-5.5 4.5-10 10-10h79.9c5.5 0 10 4.5 10 10V502c0 5.5-4.5 10-10 10zm-69.9-20h59.9V296.2h-59.9V492zm207.1-312.2h-79.9c-5.5 0-10 4.5-10 10v311.7c0 5.5 4.5 10 10 10h79.9c5.5 0 10-4.5 10-10V189.8c0-5.5-4.5-10-10-10zm-10 311.7h-59.9V199.8h59.9v291.7z"/><path d="M364.3 344c-2.6 0-5.2-1.1-7.1-2.9-1.9-1.9-2.9-4.4-2.9-7.1 0-2.6 1.1-5.2 2.9-7.1 1.9-1.9 4.4-2.9 7.1-2.9 2.6 0 5.2 1.1 7.1 2.9 1.9 1.9 2.9 4.4 2.9 7.1 0 2.6-1.1 5.2-2.9 7.1-1.9 1.8-4.5 2.9-7.1 2.9zm137.2 167.5h-79.9c-5.5 0-10-4.5-10-10V127.9c0-5.5 4.5-10 10-10h79.9c5.5 0 10 4.5 10 10v373.6c0 5.5-4.5 10-10 10zm-69.9-20h59.9V137.9h-59.9v353.6zM49.9 190.2c-4.4 0-8.5-3-9.7-7.4-1.4-5.3 1.8-10.8 7.1-12.2 2-.5 207-55.3 409.2-169.2 4.8-2.7 10.9-1 13.6 3.8 2.7 4.8 1 10.9-3.8 13.6C359.5 78.9 252.8 122.2 182 147.9c-76.7 27.9-129 41.8-129.5 41.9-.9.2-1.7.4-2.6.4z"/><path d="M449.7 46.6c-1.4 0-2.7-.3-4.1-.9-5-2.2-7.3-8.1-5.1-13.2l5.6-12.5h-14.3c-5.5 0-10-4.5-10-10s4.5-10 10-10h29.6c3.4 0 6.5 1.7 8.4 4.5 1.8 2.8 2.1 6.4.8 9.5l-11.8 26.6c-1.6 3.7-5.2 6-9.1 6z"/></svg>