<svg xmlns="http://www.w3.org/2000/svg" viewBox="0 0 512 512"><path d="M253 208c0-3.5-1.4-6.7-3.8-9.2-5.1-5.1-13.3-5.1-18.4 0L176 253.6l-22.8-22.8c-2.4-2.4-5.7-3.8-9.2-3.8-3.5 0-6.7 1.4-9.2 3.8-2.5 2.5-3.8 5.7-3.8 9.2s1.4 6.7 3.8 9.2l32 32c2.4 2.5 5.7 3.8 9.2 3.8 3.5 0 6.7-1.4 9.2-3.8l64-64c2.5-2.4 3.8-5.7 3.8-9.2zm0 128c0-3.5-1.4-6.7-3.8-9.2-5.1-5.1-13.3-5.1-18.4 0L176 381.6l-22.8-22.8c-2.5-2.5-5.7-3.8-9.2-3.8-3.5 0-6.7 1.4-9.2 3.8-2.5 2.5-3.8 5.7-3.8 9.2 0 3.5 1.4 6.7 3.8 9.2l32 32c2.4 2.4 5.7 3.8 9.2 3.8 3.5 0 6.7-1.4 9.2-3.8l64-64c2.5-2.4 3.8-5.7 3.8-9.2zm115-109h-64c-7.2 0-13 5.8-13 13s5.8 13 13 13h64c7.2 0 13-5.8 13-13s-5.8-13-13-13zm0 128h-64c-7.2 0-13 5.8-13 13s5.8 13 13 13h64c7.2 0 13-5.8 13-13s-5.8-13-13-13z"/><path d="M445 96c0-16-13-29-29-29h-67V48c0-7.2-5.8-13-13-13h-36.8l-.7-2C292.1 15.1 275 3 256 3s-36.1 12.1-42.5 30l-.7 2H176c-7.2 0-13 5.8-13 13v19H96c-16 0-29 13-29 29v384c0 16 13 29 29 29h320c16 0 29-13 29-29V96zM189 61h35c7.2 0 13-5.8 13-13 0-10.5 8.5-19 19-19s19 8.5 19 19c0 7.2 5.8 13 13 13h35v38H189V61zm230 422H93V93h70v19c0 7.2 5.8 13 13 13h160c7.2 0 13-5.8 13-13V93h70v390z"/></svg>