<svg xmlns="http://www.w3.org/2000/svg" viewBox="0 0 18 19"><path d="M9 .1C6.2.1 3.9 2.4 3.9 5.2c0 1.8 1 3.4 2.4 4.3C2.7 10.7 0 14 0 18c0 .3.3.6.6.6s.6-.3.6-.6c0-4.3 3.5-7.7 7.7-7.8 2.8 0 5.1-2.3 5.1-5.1s-2.2-5-5-5zm0 9c-2.2 0-3.9-1.8-3.9-3.9C5.1 3 6.8 1.3 9 1.3s3.9 1.7 3.9 3.9c0 2.1-1.7 3.9-3.9 3.9zm8.3 1.7h-5.2c-.3 0-.6.3-.6.6s.3.6.6.6h5.2c.3 0 .6-.3.6-.6s-.3-.6-.6-.6zm0 3h-5.2c-.3 0-.6.3-.6.6s.3.6.6.6h5.2c.3 0 .6-.3.6-.6s-.3-.6-.6-.6zm0 3h-5.2c-.3 0-.6.3-.6.6s.3.6.6.6h5.2c.3 0 .6-.3.6-.6s-.3-.6-.6-.6z"/></svg>