<svg width="65" height="65" viewBox="0 0 65 65" fill="none" xmlns="http://www.w3.org/2000/svg"><rect width="65" height="65" rx="14" fill="url(#paint0_linear)"/><path d="M52.352 22.903l.007-.008.023-.03.011-.016.016-.025.014-.024.009-.018.016-.034.004-.012a.55.55 0 0 0 .015-.042l.001-.006a.566.566 0 0 0 .021-.104v-.003a.636.636 0 0 0 .003-.057V11.585a.586.586 0 0 0-.586-.586H40.188a.586.586 0 0 0-.578.684.592.592 0 0 0-.008.097v10.743a.6.6 0 0 0 .023.164l.002.006a.57.57 0 0 0 .015.042l.004.012.016.033.009.019.014.024.015.025.012.015.023.031.007.008a.6.6 0 0 0 .031.035l.002.001a.595.595 0 0 0 .053.046c.01.009.021.017.032.024l.004.003c.015.01.031.02.047.028l5.86 3.125a.585.585 0 0 0 .552 0l5.86-3.125a.593.593 0 0 0 .047-.028l.004-.003.032-.024a.609.609 0 0 0 .053-.046l.002-.001a.571.571 0 0 0 .031-.035z" fill="#0086FF"/><path d="M51.907 11h-2.344c.323 0 .585.262.585.586v10.156c0 .02 0 .039-.002.058v.002a.65.65 0 0 1-.021.105l-.002.006a.55.55 0 0 1-.015.042l-.004.012-.016.033-.009.018-.014.025-.015.025-.011.015-.024.031-.006.008a.608.608 0 0 1-.032.034l-.002.002a.595.595 0 0 1-.085.07l-.004.003a.594.594 0 0 1-.047.028l-5.532 3.125 1.464.781a.585.585 0 0 0 .552 0l5.86-3.125a.612.612 0 0 0 .047-.028l.004-.003.032-.024a.596.596 0 0 0 .053-.046l.002-.001a.642.642 0 0 0 .032-.035l.006-.008.023-.03.011-.016.016-.025.014-.024.009-.018.016-.034.004-.012.015-.042.002-.006a.566.566 0 0 0 .02-.105v-.002a.6.6 0 0 0 .003-.057V11.585a.586.586 0 0 0-.585-.586z" fill="#0A82CB"/><path d="M33.156 23.265H13.625a.586.586 0 0 0-.586.586v26.562c0 .324.262.586.586.586h19.53a.586.586 0 0 0 .586-.586V23.851a.586.586 0 0 0-.585-.586z" fill="#AC92EC"/><path d="M23.586 23.265v-2.148a3.715 3.715 0 0 1 3.71-3.711 3.715 3.715 0 0 1 3.712 3.71v2.15h1.172v-2.15a4.888 4.888 0 0 0-4.883-4.882 4.888 4.888 0 0 0-4.883 4.883v2.148h1.172z" fill="#CCD1D9"/><path d="M33.156 23.265H30.81c.324 0 .587.262.587.586v26.562a.586.586 0 0 1-.587.586h2.345a.586.586 0 0 0 .585-.586V23.851a.586.586 0 0 0-.585-.586z" fill="#967ADC"/><path d="M37.062 23.265h-3.907c.324 0 .586.262.586.586v26.562a.586.586 0 0 1-.586.586h3.907a.586.586 0 0 0 .586-.586V23.851a.586.586 0 0 0-.586-.586z" fill="#7E64CC"/><path d="M48.586 29.32a.586.586 0 0 0-.586-.587H37.648v21.68a.586.586 0 0 1-.586.586L48 51a.586.586 0 0 0 .586-.586V29.319z" fill="#48CFAD"/><path d="M52.492 29.32a.586.586 0 0 0-.586-.587H48c.324 0 .586.263.586.586v21.095c0 .322-.26.583-.58.586h3.9a.586.586 0 0 0 .586-.586V29.319z" fill="#2DAA86"/><path d="M48.586 29.32a.586.586 0 0 0-.586-.587h-2.344c.324 0 .586.263.586.586v21.095c0 .323-.26.584-.582.586H48a.586.586 0 0 0 .586-.586V29.319z" fill="#37BC9B"/><path fill-rule="evenodd" clip-rule="evenodd" d="M41.946 15.102c0 .969.788 1.757 1.758 1.757a1.76 1.76 0 0 0 1.757-1.757 1.76 1.76 0 0 0-1.757-1.758 1.76 1.76 0 0 0-1.758 1.758zm1.172 0a.587.587 0 1 1 1.173 0 .587.587 0 0 1-1.173 0zm3.515 4.688a1.76 1.76 0 0 0 1.758 1.757 1.76 1.76 0 0 0 1.758-1.758 1.76 1.76 0 0 0-1.758-1.758 1.76 1.76 0 0 0-1.758 1.758zm1.172 0a.587.587 0 1 1 1.173 0 .587.587 0 0 1-1.173 0z" fill="#F3C895"/><path d="M42.532 21.547a.585.585 0 0 1-.415-1l7.032-7.032a.586.586 0 0 1 .829.829l-7.032 7.031a.585.585 0 0 1-.414.172z" fill="#F3C895"/><path d="M23.404 16.234a4.888 4.888 0 0 0-4.883 4.883v7.421a.586.586 0 1 0 1.172 0v-7.421a3.715 3.715 0 0 1 3.71-3.711 3.715 3.715 0 0 1 3.712 3.71v7.422a.586.586 0 1 0 1.172 0v-7.421a4.888 4.888 0 0 0-4.883-4.883zM40.97 31.077a.586.586 0 0 0-.587.586 3.325 3.325 0 0 1-2.735 3.268v1.185a4.498 4.498 0 0 0 3.907-4.453.586.586 0 0 0-.586-.586z" fill="#E6E9ED"/><defs><linearGradient id="paint0_linear" x1="0" y1="0" x2="0" y2="65" gradientUnits="userSpaceOnUse"><stop stop-color="#F4D0A5"/><stop offset="1" stop-color="#EA9127"/></linearGradient></defs></svg>