<svg width="65" height="65" viewBox="0 0 65 65" fill="none" xmlns="http://www.w3.org/2000/svg"><rect width="65" height="65" rx="14" fill="url(#paint0_linear)"/><path d="M52.914 36.803L51.068 32l1.843-4.806a1.313 1.313 0 0 0-.399-1.49l-3.998-3.24-.808-5.084c-.09-.559-.53-1-1.09-1.089l-5.084-.808-3.239-3.998a1.316 1.316 0 0 0-1.49-.399l-4.804 1.846-4.806-1.843a1.305 1.305 0 0 0-1.489.399l-3.239 3.997-5.084.809c-.56.089-1 .53-1.09 1.09l-.808 5.083-3.998 3.239a1.313 1.313 0 0 0-.399 1.488L12.93 32l-1.843 4.806a1.313 1.313 0 0 0 .4 1.488l3.997 3.239.808 5.084c.09.559.53 1 1.09 1.089l5.084.808 3.24 3.998c.359.443.96.606 1.49.399L32 51.068l4.806 1.843a1.314 1.314 0 0 0 1.49-.399l3.24-3.998 5.084-.808c.56-.09 1-.53 1.09-1.09l.808-5.083 3.998-3.24c.44-.356.6-.96.399-1.49z" fill="url(#paint1_linear)"/><path fill-rule="evenodd" clip-rule="evenodd" d="M23.783 25.609a3.657 3.657 0 0 1 3.652-3.653 3.657 3.657 0 0 1 3.652 3.653 3.657 3.657 0 0 1-3.652 3.652 3.657 3.657 0 0 1-3.652-3.652zm2.434 0a1.218 1.218 0 1 0 2.436-.001 1.218 1.218 0 0 0-2.435 0zm6.696 12.782a3.657 3.657 0 0 1 3.652-3.652 3.657 3.657 0 0 1 3.652 3.652 3.657 3.657 0 0 1-3.652 3.653 3.657 3.657 0 0 1-3.652-3.653zm2.435 0a1.218 1.218 0 1 0 2.436 0 1.218 1.218 0 0 0-2.436 0z" fill="#fff"/><path d="M39.644 22.19c-.613-.402-1.47-.271-1.909.291L24.039 40.06c-.44.562-.298 1.348.315 1.75.241.158.52.233.797.233.428 0 .85-.183 1.115-.524L39.962 23.94c.441-.565.296-1.349-.318-1.75z" fill="#fff"/><defs><linearGradient id="paint0_linear" x1="0" y1="0" x2="0" y2="65" gradientUnits="userSpaceOnUse"><stop stop-color="#ACAEF3"/><stop offset="1" stop-color="#5A30BC"/></linearGradient><linearGradient id="paint1_linear" x1="11" y1="11" x2="11" y2="53" gradientUnits="userSpaceOnUse"><stop stop-color="#7DF5AD"/><stop offset="1" stop-color="#27A2BB"/></linearGradient></defs></svg>