<svg width="65" height="65" viewBox="0 0 65 65" fill="none" xmlns="http://www.w3.org/2000/svg"><rect width="65" height="65" rx="14" fill="url(#paint0_linear)"/><g filter="url(#filter0_d)"><path d="M49.133 49.51h-32.04a3.092 3.092 0 0 1-3.091-3.092V19.74a3.092 3.092 0 0 1 3.092-3.092h32.039a3.092 3.092 0 0 1 3.091 3.092v26.678a3.092 3.092 0 0 1-3.091 3.092z" fill="url(#paint1_linear)"/><path d="M48.418 48.777h-30.61a2.954 2.954 0 0 1-2.954-2.954V20.335a2.954 2.954 0 0 1 2.954-2.954h30.61a2.954 2.954 0 0 1 2.954 2.954v25.488a2.954 2.954 0 0 1-2.954 2.954z" fill="url(#paint2_linear)"/><path d="M50.153 25.278L42.446 11.93a1.859 1.859 0 0 0-2.54-.68L15.61 25.277h34.544z" fill="url(#paint3_linear)"/><path d="M14.002 36.02h38.222V25.897a2.314 2.314 0 0 0-2.313-2.314H16.316a2.314 2.314 0 0 0-2.314 2.314V36.02z" fill="url(#paint4_linear)"/><path d="M14.002 32.213v14.205a3.092 3.092 0 0 0 3.092 3.092h32.039a3.092 3.092 0 0 0 3.091-3.092V32.213a1.91 1.91 0 0 0-1.91-1.91H15.913a1.91 1.91 0 0 0-1.91 1.91z" fill="url(#paint5_linear)"/><path d="M46.458 24.886v24.625h2.675a3.092 3.092 0 0 0 3.091-3.092V30.653l-5.766-5.767z" fill="url(#paint6_linear)"/><path d="M43.85 52.977L17.02 49.86a3.411 3.411 0 0 1-3.018-3.388V19.51c0 .58.434 1.067 1.01 1.134l29.626 3.44a3.411 3.411 0 0 1 3.017 3.39v22.115a3.411 3.411 0 0 1-3.804 3.389z" fill="url(#paint7_linear)"/><path d="M43.85 47.591l-26.83-3.116a3.411 3.411 0 0 1-3.018-3.388v5.386a3.41 3.41 0 0 0 3.018 3.388l26.83 3.116a3.411 3.411 0 0 0 3.805-3.388v-5.386a3.411 3.411 0 0 1-3.804 3.388z" fill="url(#paint8_linear)"/><path d="M16.408 23.712a.655.655 0 0 1-.068-.004l-1.228-.135a.618.618 0 1 1 .135-1.227l1.227.134a.618.618 0 0 1-.066 1.232z" fill="url(#paint9_linear)"/><path fill-rule="evenodd" clip-rule="evenodd" d="M21.122 24.234a.618.618 0 0 0 .135-1.228l-2.392-.263a.618.618 0 0 0-.135 1.228l2.392.263zm4.85.53a.63.63 0 0 1-.068-.004l-2.391-.263a.618.618 0 1 1 .135-1.228l2.39.263a.618.618 0 0 1-.066 1.232zm4.714.522a.618.618 0 0 0 .135-1.228l-2.391-.263a.618.618 0 0 0-.135 1.228l2.391.263zm4.85.53a.626.626 0 0 1-.067-.005l-2.392-.262a.617.617 0 1 1 .135-1.228l2.391.263a.618.618 0 0 1-.066 1.231zm4.715.521a.618.618 0 0 0 .135-1.228l-2.391-.263a.618.618 0 0 0-.135 1.228l2.39.263zm4.623 1.213a.616.616 0 0 1-.425-.17c-.458-.433-1.093-.71-1.79-.778l-.016-.002a.618.618 0 1 1 .133-1.228l.01.001c.962.095 1.856.49 2.513 1.11a.618.618 0 0 1-.425 1.067zm.246 3.947a.617.617 0 1 0 1.235 0V29.09a.617.617 0 1 0-1.235 0v2.406zm.617 5.428a.617.617 0 0 1-.617-.617v-2.406a.618.618 0 1 1 1.235 0v2.406a.617.617 0 0 1-.618.617zm-.617 4.194a.618.618 0 1 0 1.235 0v-2.406a.617.617 0 1 0-1.235 0v2.406zm.617 5.429a.617.617 0 0 1-.617-.618v-2.406a.618.618 0 1 1 1.235 0v2.406a.617.617 0 0 1-.618.618zm-23.27 1.961a.618.618 0 0 0 .156-1.226l-2.386-.303a.619.619 0 0 0-.156 1.226l2.387.303zm4.852.612a.658.658 0 0 1-.078-.005l-2.387-.303a.618.618 0 1 1 .156-1.226l2.386.304a.618.618 0 0 1-.077 1.23zm16.108 1.16a.617.617 0 0 0 .822.296c.938-.442 1.625-1.171 1.933-2.054a.618.618 0 0 0-1.166-.407c-.195.559-.667 1.048-1.293 1.344a.617.617 0 0 0-.296.822zm-1.868.656a.618.618 0 0 0 .156-1.225l-2.387-.304a.619.619 0 0 0-.156 1.226l2.387.303zm-4.694-.602a.656.656 0 0 1-.079-.005l-2.386-.303a.618.618 0 1 1 .156-1.226l2.386.304a.618.618 0 0 1-.077 1.23zm-4.852-.612a.618.618 0 0 0 .156-1.225l-2.386-.304a.618.618 0 0 0-.156 1.226l2.386.303z" fill="url(#paint10_linear)"/><path d="M17.768 47.906a.637.637 0 0 1-.078-.005l-1.226-.155a.618.618 0 1 1 .156-1.226l1.225.156a.618.618 0 0 1-.077 1.23z" fill="url(#paint11_linear)"/><path d="M40.46 15.6l-3.952 2.15a1.061 1.061 0 1 1-1.015-1.865l3.953-2.15a1.061 1.061 0 1 1 1.015 1.865z" fill="#61DB99"/><path d="M47.655 40.845l-3.922-3.923a3.028 3.028 0 1 0-4.278 4.278l8.2 8.2v-8.555z" fill="url(#paint12_linear)"/><path d="M41.502 41.997a3.028 3.028 0 1 0 0-6.056 3.028 3.028 0 0 0 0 6.056z" fill="url(#paint13_linear)"/><path d="M41.502 41.058a2.09 2.09 0 1 0 0-4.179 2.09 2.09 0 0 0 0 4.18z" fill="url(#paint14_linear)"/><path d="M40.708 38.607a.432.432 0 1 0 0-.864.432.432 0 0 0 0 .864z" fill="url(#paint15_linear)"/><path d="M42.296 38.607a.432.432 0 1 0 0-.864.432.432 0 0 0 0 .864z" fill="url(#paint16_linear)"/><path d="M40.708 40.196a.432.432 0 1 0 0-.865.432.432 0 0 0 0 .865z" fill="url(#paint17_linear)"/><path d="M42.296 40.196a.432.432 0 1 0 0-.865.432.432 0 0 0 0 .865z" fill="url(#paint18_linear)"/></g><defs><filter id="filter0_d" x="6.002" y="5" width="54.222" height="58" filterUnits="userSpaceOnUse" color-interpolation-filters="sRGB"><feFlood flood-opacity="0" result="BackgroundImageFix"/><feColorMatrix in="SourceAlpha" values="0 0 0 0 0 0 0 0 0 0 0 0 0 0 0 0 0 0 127 0"/><feOffset dy="2"/><feGaussianBlur stdDeviation="4"/><feColorMatrix values="0 0 0 0 0 0 0 0 0 0 0 0 0 0 0 0 0 0 0.5 0"/><feBlend in2="BackgroundImageFix" result="effect1_dropShadow"/><feBlend in="SourceGraphic" in2="effect1_dropShadow" result="shape"/></filter><linearGradient id="paint0_linear" x1="0" y1="0" x2="0" y2="65" gradientUnits="userSpaceOnUse"><stop stop-color="#9BE0F4"/><stop offset="1" stop-color="#62BEE4"/></linearGradient><linearGradient id="paint1_linear" x1="29.932" y1="14.658" x2="29.767" y2="21.203" gradientUnits="userSpaceOnUse"><stop stop-color="#FFB92D"/><stop offset="1" stop-color="#F59500"/></linearGradient><linearGradient id="paint2_linear" x1="31.893" y1="18.837" x2="31.442" y2="23.864" gradientUnits="userSpaceOnUse"><stop stop-color="#FFB92D"/><stop offset="1" stop-color="#F59500"/></linearGradient><linearGradient id="paint3_linear" x1="28.261" y1="19.247" x2="28.261" y2="23.065" gradientUnits="userSpaceOnUse"><stop stop-color="#A7F3CE"/><stop offset="1" stop-color="#61DB99"/></linearGradient><linearGradient id="paint4_linear" x1="16.647" y1="25.857" x2="16.647" y2="36.573" gradientUnits="userSpaceOnUse"><stop stop-color="#FF4C54"/><stop offset="1" stop-color="#BE3F45"/></linearGradient><linearGradient id="paint5_linear" x1="16.646" y1="33.814" x2="16.646" y2="50.363" gradientUnits="userSpaceOnUse"><stop stop-color="#FF4C54"/><stop offset="1" stop-color="#BE3F45"/></linearGradient><linearGradient id="paint6_linear" x1="50.05" y1="31.245" x2="47.262" y2="31.245" gradientUnits="userSpaceOnUse"><stop stop-color="#BE3F45" stop-opacity=".01"/><stop offset="1" stop-color="#BE3F45"/></linearGradient><linearGradient id="paint7_linear" x1="21.824" y1="41.394" x2="35.985" y2="47.989" gradientUnits="userSpaceOnUse"><stop stop-color="#FFB92D"/><stop offset="1" stop-color="#F59500"/></linearGradient><linearGradient id="paint8_linear" x1="24.047" y1="48.801" x2="23.973" y2="53.291" gradientUnits="userSpaceOnUse"><stop stop-color="#BE3F45" stop-opacity=".01"/><stop offset="1" stop-color="#BE3F45"/></linearGradient><linearGradient id="paint9_linear" x1="-9.964" y1="22.342" x2="-9.964" y2="51.001" gradientUnits="userSpaceOnUse"><stop stop-color="#FFF465"/><stop offset="1" stop-color="#FFE600"/></linearGradient><linearGradient id="paint10_linear" x1="17.982" y1="22.343" x2="17.982" y2="50.942" gradientUnits="userSpaceOnUse"><stop stop-color="#FFF465"/><stop offset="1" stop-color="#FFE600"/></linearGradient><linearGradient id="paint11_linear" x1="-8.193" y1="22.341" x2="-8.193" y2="51" gradientUnits="userSpaceOnUse"><stop stop-color="#FFF465"/><stop offset="1" stop-color="#FFE600"/></linearGradient><linearGradient id="paint12_linear" x1="48.437" y1="36.792" x2="38.216" y2="32.035" gradientUnits="userSpaceOnUse"><stop stop-color="#BE3F45" stop-opacity=".01"/><stop offset="1" stop-color="#BE3F45"/></linearGradient><linearGradient id="paint13_linear" x1="39.312" y1="37.069" x2="39.312" y2="41.447" gradientUnits="userSpaceOnUse"><stop stop-color="#FF4C54"/><stop offset="1" stop-color="#BE3F45"/></linearGradient><linearGradient id="paint14_linear" x1="43.012" y1="40.281" x2="43.012" y2="37.259" gradientUnits="userSpaceOnUse"><stop stop-color="#FF4C54"/><stop offset="1" stop-color="#BE3F45"/></linearGradient><linearGradient id="paint15_linear" x1="34.7" y1="20.509" x2="35.564" y2="24.328" gradientUnits="userSpaceOnUse"><stop stop-color="#A7F3CE"/><stop offset="1" stop-color="#61DB99"/></linearGradient><linearGradient id="paint16_linear" x1="36.288" y1="20.509" x2="37.152" y2="24.328" gradientUnits="userSpaceOnUse"><stop stop-color="#A7F3CE"/><stop offset="1" stop-color="#61DB99"/></linearGradient><linearGradient id="paint17_linear" x1="34.358" y1="20.587" x2="35.222" y2="24.405" gradientUnits="userSpaceOnUse"><stop stop-color="#A7F3CE"/><stop offset="1" stop-color="#61DB99"/></linearGradient><linearGradient id="paint18_linear" x1="35.945" y1="20.587" x2="36.81" y2="24.405" gradientUnits="userSpaceOnUse"><stop stop-color="#A7F3CE"/><stop offset="1" stop-color="#61DB99"/></linearGradient></defs></svg>