<svg width="65" height="65" viewBox="0 0 65 65" fill="none" xmlns="http://www.w3.org/2000/svg"><rect width="65" height="65" rx="14" fill="url(#paint0_linear)"/><path d="M33.875 12.972l5.39 10.922 12.053 1.75c1.371.2 1.919 1.886.926 2.853l-8.721 8.501 2.059 12.004c.234 1.366-1.2 2.408-2.426 1.763l-10.78-5.668-10.78 5.668c-1.227.645-2.661-.397-2.427-1.763l2.06-12.004-8.722-8.501c-.993-.967-.445-2.653.927-2.852l12.052-1.752 5.39-10.92c.613-1.244 2.386-1.244 2.999 0z" fill="url(#paint1_linear)"/><path d="M39.265 23.894l-5.39-10.922a1.653 1.653 0 0 0-1.5-.932v20.677l6.89-8.823z" fill="url(#paint2_linear)"/><path d="M43.523 36.998l8.721-8.501a1.65 1.65 0 0 0 .43-1.691l-20.298 5.91 11.147 4.282z" fill="url(#paint3_linear)"/><path d="M44.922 50.633L32.376 32.717v12.38l10.78 5.667a1.652 1.652 0 0 0 1.766-.13z" fill="url(#paint4_linear)"/><path d="M32.376 32.717l-11.148 4.28-2.059 12.005c-.116.68.181 1.28.66 1.631l12.547-17.916z" fill="url(#paint5_linear)"/><path d="M12.077 26.806l20.299 5.911-6.89-8.823-12.052 1.751c-.695.1-1.178.584-1.357 1.161z" fill="url(#paint6_linear)"/><path d="M21.228 36.998l-8.721-8.501a1.651 1.651 0 0 1-.43-1.691l20.299 5.91-11.148 4.282z" fill="url(#paint7_linear)"/><defs><linearGradient id="paint0_linear" x1=".26" y1=".52" x2=".26" y2="65" gradientUnits="userSpaceOnUse"><stop stop-color="#D4A1F8"/><stop offset="1" stop-color="#9932CF"/></linearGradient><linearGradient id="paint1_linear" x1="8.837" y1="16.579" x2="8.837" y2="61.543" gradientUnits="userSpaceOnUse"><stop stop-color="#FFCF95"/><stop offset=".427" stop-color="#FFC954"/><stop offset="1" stop-color="#FFC200"/></linearGradient><linearGradient id="paint2_linear" x1="42.938" y1="1.98" x2="29.345" y2="1.98" gradientUnits="userSpaceOnUse"><stop stop-color="#FFC200" stop-opacity=".01"/><stop offset=".203" stop-color="#FB0" stop-opacity=".203"/><stop offset=".499" stop-color="#FFA700" stop-opacity=".499"/><stop offset=".852" stop-color="#F80" stop-opacity=".852"/><stop offset="1" stop-color="#FF7800"/></linearGradient><linearGradient id="paint3_linear" x1="62.979" y1="42.303" x2="62.071" y2="24.439" gradientUnits="userSpaceOnUse"><stop stop-color="#FFC200" stop-opacity=".01"/><stop offset=".203" stop-color="#FB0" stop-opacity=".203"/><stop offset=".499" stop-color="#FFA700" stop-opacity=".499"/><stop offset=".852" stop-color="#F80" stop-opacity=".852"/><stop offset="1" stop-color="#FF7800"/></linearGradient><linearGradient id="paint4_linear" x1="32.653" y1="62.769" x2="49.623" y2="54.743" gradientUnits="userSpaceOnUse"><stop stop-color="#FFC200" stop-opacity=".01"/><stop offset=".203" stop-color="#FB0" stop-opacity=".203"/><stop offset=".499" stop-color="#FFA700" stop-opacity=".499"/><stop offset=".852" stop-color="#F80" stop-opacity=".852"/><stop offset="1" stop-color="#FF7800"/></linearGradient><linearGradient id="paint5_linear" x1="14.541" y1="41.725" x2="26.425" y2="47.148" gradientUnits="userSpaceOnUse"><stop stop-color="#FFC200" stop-opacity=".01"/><stop offset=".203" stop-color="#FB0" stop-opacity=".203"/><stop offset=".499" stop-color="#FFA700" stop-opacity=".499"/><stop offset=".852" stop-color="#F80" stop-opacity=".852"/><stop offset="1" stop-color="#FF7800"/></linearGradient><linearGradient id="paint6_linear" x1="11.791" y1="19.434" x2="10.981" y2="31.614" gradientUnits="userSpaceOnUse"><stop stop-color="#FFC200" stop-opacity=".01"/><stop offset=".203" stop-color="#FB0" stop-opacity=".203"/><stop offset=".499" stop-color="#FFA700" stop-opacity=".499"/><stop offset=".852" stop-color="#F80" stop-opacity=".852"/><stop offset="1" stop-color="#FF7800"/></linearGradient><linearGradient id="paint7_linear" x1="28.222" y1="13.859" x2="14.528" y2="37.167" gradientUnits="userSpaceOnUse"><stop stop-color="#FFC200" stop-opacity=".01"/><stop offset=".203" stop-color="#FB0" stop-opacity=".203"/><stop offset=".499" stop-color="#FFA700" stop-opacity=".499"/><stop offset=".852" stop-color="#F80" stop-opacity=".852"/><stop offset="1" stop-color="#FF7800"/></linearGradient></defs></svg>