<svg width="65" height="65" viewBox="0 0 65 65" fill="none" xmlns="http://www.w3.org/2000/svg"><rect width="65" height="65" rx="14" fill="url(#paint0_linear)"/><g filter="url(#filter0_d)"><path d="M45.727 26.718v15.558c0 2.005-1.505 3.629-3.36 3.629H28L21.182 54v-8.095H16.36c-1.856 0-3.361-1.624-3.361-3.628V26.72c0-2.004 1.505-3.628 3.36-3.628h26.006c1.856 0 3.361 1.624 3.361 3.627z" fill="#FFB8DA"/><path d="M49.64 14H23.633c-1.856 0-3.361 1.553-3.361 3.47v6.383H42.82c1.856 0 3.361 1.554 3.361 3.47v8.495h3.457c1.856 0 3.361-1.553 3.361-3.47V17.47c0-1.917-1.505-3.47-3.36-3.47z" fill="#D92779"/><path d="M30.5 32.182h-9.545c-.377 0-.682-.407-.682-.91 0-.501.305-.908.682-.908H30.5c.377 0 .682.407.682.909s-.305.909-.682.909zm9.083 3.636h-18.62c-.382 0-.69-.407-.69-.909s.308-.909.69-.909h18.62c.382 0 .69.407.69.91 0 .5-.308.908-.69.908zm0 5.455h-18.62c-.382 0-.69-.408-.69-.91 0-.501.308-.908.69-.908h18.62c.382 0 .69.407.69.909s-.308.909-.69.909z" fill="#fff"/></g><defs><filter id="filter0_d" x="5" y="8" width="56" height="56" filterUnits="userSpaceOnUse" color-interpolation-filters="sRGB"><feFlood flood-opacity="0" result="BackgroundImageFix"/><feColorMatrix in="SourceAlpha" values="0 0 0 0 0 0 0 0 0 0 0 0 0 0 0 0 0 0 127 0"/><feOffset dy="2"/><feGaussianBlur stdDeviation="4"/><feColorMatrix values="0 0 0 0 0.473194 0 0 0 0 0.0575263 0 0 0 0 0.282551 0 0 0 0.5 0"/><feBlend in2="BackgroundImageFix" result="effect1_dropShadow"/><feBlend in="SourceGraphic" in2="effect1_dropShadow" result="shape"/></filter><linearGradient id="paint0_linear" x1="0" y1="0" x2="0" y2="65" gradientUnits="userSpaceOnUse"><stop stop-color="#F3ACDB"/><stop offset="1" stop-color="#E374B5"/></linearGradient></defs></svg>