<svg width="65" height="65" viewBox="0 0 65 65" fill="none" xmlns="http://www.w3.org/2000/svg"><rect width="65" height="65" rx="14" fill="url(#paint0_linear)"/><g filter="url(#filter0_d)"><path d="M44.873 50H18.127C17.504 50 17 49.48 17 48.84V28.16c0-.64.504-1.16 1.127-1.16h26.746c.622 0 1.127.52 1.127 1.16v20.68c0 .64-.505 1.16-1.127 1.16z" fill="#CBF7F7"/><path d="M44.912 27H32v23h12.912c.6 0 1.088-.52 1.088-1.16V28.16c0-.64-.487-1.16-1.088-1.16z" fill="#96E8FF"/><path fill-rule="evenodd" clip-rule="evenodd" d="M38.208 11h-.148c-2.544 0-4.784 1.389-6.06 3.477C30.724 12.39 28.485 11 25.94 11h-.148C23.15 11 21 13.243 21 16s2.15 5 4.792 5h12.416C40.85 21 43 18.757 43 16s-2.15-5-4.792-5zm-7.33 7.66h-5.086c-1.406 0-2.55-1.193-2.55-2.66s1.144-2.66 2.55-2.66h.148c2.723 0 4.939 2.311 4.939 5.153v.168zm2.243 0h5.087c1.406 0 2.55-1.193 2.55-2.66s-1.144-2.66-2.55-2.66h-.148c-2.723 0-4.939 2.311-4.939 5.153v.168z" fill="#1E7DD3"/><path fill-rule="evenodd" clip-rule="evenodd" d="M38.06 11h.148C40.85 11 43 13.243 43 16s-2.15 5-4.792 5H32v-6.523C33.276 12.388 35.516 11 38.06 11zm-4.939 7.66h5.087c1.406 0 2.55-1.193 2.55-2.66s-1.144-2.66-2.55-2.66h-.148c-2.723 0-4.939 2.311-4.939 5.153v.168z" fill="#025198"/><path d="M47.89 29H15.11c-.613 0-1.11-.503-1.11-1.123v-7.754c0-.62.497-1.123 1.11-1.123h32.78c.613 0 1.11.503 1.11 1.123v7.754c0 .62-.497 1.123-1.11 1.123z" fill="#19CFFC"/><path d="M48.858 19H32v10h16.858c.63 0 1.142-.503 1.142-1.123v-7.754c0-.62-.512-1.123-1.142-1.123z" fill="#19CFFC"/><path d="M26 19h11v31H26V19z" fill="#1E7DD3"/><path d="M32 19h6v31h-6V19z" fill="#025198"/></g><defs><filter id="filter0_d" x="6" y="5" width="52" height="55" filterUnits="userSpaceOnUse" color-interpolation-filters="sRGB"><feFlood flood-opacity="0" result="BackgroundImageFix"/><feColorMatrix in="SourceAlpha" values="0 0 0 0 0 0 0 0 0 0 0 0 0 0 0 0 0 0 127 0"/><feOffset dy="2"/><feGaussianBlur stdDeviation="4"/><feColorMatrix values="0 0 0 0 0.00870126 0 0 0 0 0.101504 0 0 0 0 0.187302 0 0 0 0.5 0"/><feBlend in2="BackgroundImageFix" result="effect1_dropShadow"/><feBlend in="SourceGraphic" in2="effect1_dropShadow" result="shape"/></filter><linearGradient id="paint0_linear" x1="0" y1="0" x2="0" y2="65" gradientUnits="userSpaceOnUse"><stop stop-color="#F68E8E"/><stop offset="1" stop-color="#EC5631"/></linearGradient></defs></svg>